<?xml version="1.0" encoding="utf-8"?>
<!-- Generator: Adobe Illustrator 28.0.0, SVG Export Plug-In . SVG Version: 6.00 Build 0)  -->
<svg version="1.1" id="Layer_1" xmlns="http://www.w3.org/2000/svg" xmlns:xlink="http://www.w3.org/1999/xlink" x="0px" y="0px"
	 viewBox="0 0 288 560" style="enable-background:new 0 0 288 560;" xml:space="preserve">
<style type="text/css">
	.st0{fill:#FFFFFF;stroke:#000000;stroke-miterlimit:10;}
	.st1{fill:#F7931E;stroke:#000000;stroke-miterlimit:10;}
	.st2{fill:#42210B;stroke:#000000;stroke-miterlimit:10;}
</style>
<path class="st0" d="M217.2,176.72"/>
<polygon class="st1" points="190.46,276.71 191.99,276.71 206.63,276.71 207.82,281.65 191.31,282.67 201.69,282.67 203.06,286.24 
	190.46,288.12 185.35,283.69 "/>
<polygon class="st2" points="189.61,275.35 186.89,268.71 177.52,263.1 151.31,253.56 99.74,260.2 80.67,280.8 108.42,302.41 
	141.78,311.27 177.01,304.63 190.46,288.12 185.35,283.69 190.46,276.71 "/>
<path class="st0" d="M169.18,261.39c0,0-17.53-4.09-9.19-1.02c8.34,3.06,8.34,3.06,8.34,3.06l-9.87,2.89l9.87,1.87l-18.21,4.94
	l14.3,3.57l-12.09,7.32l10.04,2.38l-4.26,5.79l5.79,1.19l-2.89,7.83h5.79l-0.56,5.43l10.77-2.03l13.45-16.51l-5.11-4.43l4.46-6.1
	l-2.93-8.88l-9.36-5.62l-7.23-2.63L169.18,261.39z"/>
<line class="st0" x1="183.99" y1="271.44" x2="173.1" y2="271.44"/>
<polygon class="st0" points="177.2,272.89 184.14,273.86 185.62,277.19 174.35,277.46 171.48,274.84 "/>
<path class="st0" d="M142.49,270.45c-20.3-6-20.3-6-20.3-6l-18.64,6l-20.43,27.83l4.85,26.04l17.49,9.19l28.85-11.11l10.98-14.3
	l-14.43-16.72l10.98-14.67"/>
</svg>
