<?xml version="1.0" encoding="utf-8"?>
<!-- Generator: Adobe Illustrator 28.0.0, SVG Export Plug-In . SVG Version: 6.00 Build 0)  -->
<svg version="1.1" id="Layer_1" xmlns="http://www.w3.org/2000/svg" xmlns:xlink="http://www.w3.org/1999/xlink" x="0px" y="0px"
	 viewBox="0 0 288 560" style="enable-background:new 0 0 288 560;" xml:space="preserve">
<style type="text/css">
	.st0{fill:#F7931E;stroke:#000000;stroke-miterlimit:10;}
	.st1{fill:#42210B;stroke:#000000;stroke-miterlimit:10;}
	.st2{fill:#FFFFFF;stroke:#000000;stroke-miterlimit:10;}
</style>
<polygon class="st0" points="123.55,243.72 125.09,243.72 139.72,243.72 140.91,248.66 124.4,249.68 134.79,249.68 136.15,253.26 
	123.55,255.13 118.45,250.7 "/>
<polygon class="st1" points="122.7,242.36 119.98,235.72 110.62,230.11 84.4,220.57 32.83,227.21 13.77,247.81 41.51,269.43 
	74.87,278.28 110.11,271.64 123.55,255.13 118.45,250.7 123.55,243.72 "/>
<path class="st2" d="M102.28,228.4c0,0-17.53-4.09-9.19-1.02s8.34,3.06,8.34,3.06l-9.87,2.89l9.87,1.87l-18.21,4.94l14.3,3.57
	l-12.09,7.32l10.04,2.38l-4.26,5.79L97,260.4l-2.89,7.83h5.79l-0.56,5.43l10.77-2.03l13.45-16.51l-5.11-4.43l4.46-6.1l-2.93-8.88
	l-9.36-5.62l-7.23-2.63L102.28,228.4z"/>
<line class="st2" x1="117.09" y1="238.45" x2="106.19" y2="238.45"/>
<polygon class="st2" points="110.29,239.9 117.23,240.87 118.71,244.2 107.44,244.47 104.57,241.85 "/>
<polyline class="st2" points="76.4,242.19 67.89,228.06 53.26,216.83 35.38,215.13 18.36,218.36 12.57,226.24 14.96,234.02 
	24.49,231.3 20.06,238.45 28.23,238.45 26.53,242.19 37.26,242.19 35.55,246.11 43.72,246.11 42.36,252.06 53.26,253.6 
	58.36,255.13 82.36,255.13 "/>
</svg>
